PathFileType	3	(X/Y/Z)	squats_2__view2_aligned.trc
DataRate	CameraRate	NumFrames	NumMarkers	Units	OrigDataRate	OrigDataStartFrame	OrigNumFrames
100.0	100.0	9	19	mm	100.0	892	1550
Frame#	Time	pelvis			neck			head			hip_left			hip_right			knee_left			knee_right			ankle_left			ankle_right			heel_left			heel_right			toe_left			toe_right			shoulder_left			shoulder_right			elbow_left			elbow_right			wrist_left			wrist_right			
		X1	Y1	Z1	X2	Y2	Z2	X3	Y3	Z3	X4	Y4	Z4	X5	Y5	Z5	X6	Y6	Z6	X7	Y7	Z7	X8	Y8	Z8	X9	Y9	Z9	X10	Y10	Z10	X11	Y11	Z11	X12	Y12	Z12	X13	Y13	Z13	X14	Y14	Z14	X15	Y15	Z15	X16	Y16	Z16	X17	Y17	Z17	X18	Y18	Z18	X19	Y19	Z19	
892	8.91000	-14.425553	418.662627	64.518953	1.885424	848.752092	-201.715115	-0.880105	910.815441	-350.690969	-86.487221	424.002169	64.652007	57.636114	413.323085	64.385902	-194.493147	393.677718	-303.825107	159.327496	101.534658	-118.056884	-160.282032	171.100109	-5.456512	159.420294	-228.822471	50.030450	-156.455318	146.820975	44.922796	154.442492	-264.453736	92.409495	-162.459920	85.041379	-146.303079	193.059359	-319.468307	-101.778323	-168.768199	821.454960	-155.114689	173.687031	805.808506	-180.810078	-272.805837	567.260462	-179.511789	266.970570	550.438157	-208.734944	-199.455025	484.450562	-387.362186	137.131344	478.530152	-387.706519
893	8.92000	-14.287196	423.767499	65.296161	1.865170	853.629521	-202.146645	-0.769945	915.351745	-351.257212	-86.331134	428.865033	65.256455	57.756742	418.669965	65.335870	-193.139687	395.258271	-303.431707	161.081018	110.158298	-120.177015	-160.101745	171.615639	-5.551581	160.062281	-219.273893	49.495026	-156.431669	147.256086	44.798594	154.832481	-254.752882	91.949261	-162.218082	85.539355	-146.527567	194.425045	-310.052197	-101.867905	-168.596778	826.383498	-155.602837	173.378503	810.816623	-180.737566	-272.225225	572.208270	-179.082850	266.323960	555.487351	-207.239818	-198.545945	488.164811	-386.171887	137.417279	482.743044	-386.202512
894	8.93000	-14.148839	428.872371	66.073370	1.844916	858.506951	-202.578176	-0.659785	919.888049	-351.823455	-86.175048	433.727897	65.860904	57.877370	424.016845	66.285838	-191.786227	396.838824	-303.038308	162.834541	118.781939	-122.297146	-159.921457	172.131169	-5.646650	160.704268	-209.725315	48.959602	-156.408020	147.691197	44.674393	155.222470	-245.052027	91.489028	-161.976244	86.037332	-146.752055	195.790731	-300.636087	-101.957487	-168.425358	831.312037	-156.090986	173.069974	815.824741	-180.665055	-271.644613	577.156077	-178.653910	265.677349	560.536545	-205.744691	-197.636866	491.879061	-384.981587	137.703214	486.955937	-384.698505
895	8.94000	-14.010482	433.977244	66.850578	1.824663	863.384381	-203.009706	-0.549624	924.424354	-352.389698	-86.018961	438.590762	66.465352	57.997997	429.363725	67.235806	-190.432768	398.419377	-302.644908	164.588063	127.405579	-124.417277	-159.741170	172.646700	-5.741719	161.346255	-200.176736	48.424177	-156.384371	148.126309	44.550191	155.612459	-235.351173	91.028795	-161.734407	86.535309	-146.976543	197.156417	-291.219978	-102.047069	-168.253937	836.240575	-156.579134	172.761446	820.832858	-180.592543	-271.064000	582.103885	-178.224970	265.030738	565.585739	-204.249565	-196.727786	495.593310	-383.791287	137.989149	491.168829	-383.194498
896	8.95000	-13.872125	439.082116	67.627787	1.804409	868.261810	-203.441236	-0.439464	928.960658	-352.955941	-85.862875	443.453626	67.069800	58.118625	434.710606	68.185774	-189.079308	399.999930	-302.251509	166.341585	136.029219	-126.537408	-159.560882	173.162230	-5.836789	161.988242	-190.628158	47.888753	-156.360722	148.561420	44.425990	156.002449	-225.650319	90.568562	-161.492569	87.033286	-147.201032	198.522103	-281.803868	-102.136651	-168.082517	841.169114	-157.067282	172.452918	825.840975	-180.520032	-270.483388	587.051692	-177.796031	264.384128	570.634933	-202.754439	-195.818707	499.307560	-382.600988	138.275084	495.381721	-381.690491
897	8.96000	-13.733768	444.186988	68.404995	1.784156	873.139240	-203.872767	-0.329304	933.496962	-353.522185	-85.706788	448.316491	67.674249	58.239252	440.057486	69.135742	-187.725848	401.580483	-301.858109	168.095108	144.652859	-128.657539	-159.380594	173.677760	-5.931858	162.630230	-181.079580	47.353329	-156.337073	148.996531	44.301788	156.392438	-215.949465	90.108329	-161.250731	87.531263	-147.425520	199.887790	-272.387758	-102.226233	-167.911096	846.097653	-157.555431	172.144389	830.849092	-180.447520	-269.902776	591.999500	-177.367091	263.737517	575.684126	-201.259313	-194.909627	503.021809	-381.410688	138.561018	499.594613	-380.186484
898	8.97000	-12.017440	451.565228	69.528718	2.833377	880.512561	-204.057928	0.854288	940.752203	-353.867630	-83.986505	455.370660	68.691620	59.951626	447.759796	70.365817	-185.183667	403.855426	-300.361759	170.758259	155.237048	-131.066701	-158.147721	174.157098	-5.597825	164.449205	-169.627009	46.767393	-155.254413	149.297985	44.557986	158.016597	-204.313118	89.647139	-159.964030	88.149764	-147.419163	202.284556	-261.181634	-102.414762	-166.719007	853.237904	-157.814666	173.005566	838.350990	-180.049148	-267.617295	598.988373	-176.523683	263.709716	583.111261	-199.093852	-191.320255	508.935956	-379.658086	139.966388	505.838772	-378.113509
899	8.98000	-10.301112	458.943468	70.652441	3.882598	887.885882	-204.243089	2.037879	948.007445	-354.213075	-82.266222	462.424830	69.708991	61.663999	455.462107	71.595891	-182.641487	406.130368	-298.865409	173.421411	165.821237	-133.475864	-156.914848	174.636435	-5.263792	166.268180	-158.174438	46.181458	-154.171752	149.599438	44.814184	159.640756	-192.676772	89.185949	-158.677328	88.768266	-147.412806	204.681323	-249.975509	-102.603290	-165.526918	860.378155	-158.073901	173.866744	845.852887	-179.650777	-265.331814	605.977246	-175.680275	263.681916	590.538396	-196.928392	-187.730883	514.850102	-377.905483	141.371758	512.082931	-376.040533
900	8.99000	-8.584783	466.321708	71.776163	4.931820	895.259204	-204.428250	3.221470	955.262686	-354.558520	-80.545939	469.478999	70.726363	63.376372	463.164418	72.825966	-180.099306	408.405310	-297.369059	176.084563	176.405426	-135.885027	-155.681975	175.115772	-4.929759	168.087155	-146.721867	45.595522	-153.089092	149.900892	45.070382	161.264915	-181.040426	88.724759	-157.390627	89.386767	-147.406448	207.078089	-238.769385	-102.791819	-164.334829	867.518407	-158.333137	174.727921	853.354785	-179.252405	-263.046333	612.966119	-174.836867	263.654115	597.965531	-194.762932	-184.141511	520.764248	-376.152881	142.777128	518.327089	-373.967558
